<svg clip-rule="evenodd" fill-rule="evenodd" height="512" stroke-linejoin="round" stroke-miterlimit="2" viewBox="0 0 24 24" width="512" xmlns="http://www.w3.org/2000/svg"><g id="Icon"><path d="m14.011 12.739c0-.729-.29-1.429-.806-1.944-.515-.516-1.215-.806-1.944-.806-1.986 0-5.014 0-7 0-.73 0-1.429.29-1.945.806-.515.515-.805 1.215-.805 1.944v7c0 .73.29 1.429.805 1.945.516.515 1.215.805 1.945.805h7c.729 0 1.429-.29 1.944-.805.516-.516.806-1.215.806-1.945zm-2.75 6c0-.552-.448-1-1-1s-1 .448-1 1 .448 1 1 1 1-.448 1-1zm-6-1c-.552 0-1 .448-1 1s.448 1 1 1 1-.448 1-1-.448-1-1-1zm2.5-2.5c-.552 0-1 .448-1 1s.448 1 1 1 1-.448 1-1-.448-1-1-1zm2.5-2.5c-.552 0-1 .448-1 1s.448 1 1 1 1-.448 1-1-.448-1-1-1zm-4 1c0-.552-.448-1-1-1s-1 .448-1 1 .448 1 1 1 1-.448 1-1z"/><path d="m8.528 8.989h2.733c.994 0 1.948.395 2.651 1.099.704.703 1.099 1.657 1.099 2.651v2.592c.824.279 1.391.461 1.427.474.686.247 1.442.211 2.102-.099.66-.311 1.169-.871 1.416-1.557.673-1.869 1.698-4.718 2.371-6.587.247-.686.211-1.442-.1-2.102-.31-.66-.87-1.169-1.557-1.416-1.868-.673-4.717-1.698-6.586-2.371-.686-.247-1.443-.211-2.102.1-.66.31-1.17.87-1.417 1.557zm9.179 3.288c.187-.52-.083-1.093-.602-1.28s-1.093.083-1.279.602c-.187.52.083 1.093.602 1.28s1.093-.083 1.279-.602zm-2.108-4.479c-.519-.187-1.092.083-1.279.603-.187.519.083 1.092.602 1.279s1.093-.083 1.28-.602-.083-1.093-.603-1.28zm-.903-1.919c.187-.519-.083-1.093-.602-1.28-.52-.186-1.093.083-1.28.603-.187.519.083 1.092.602 1.279.52.187 1.093-.083 1.28-.602z"/></g></svg>