<?xml version="1.0" encoding="iso-8859-1"?>
<!-- Generator: Adobe Illustrator 19.0.0, SVG Export Plug-In . SVG Version: 6.00 Build 0)  -->
<svg version="1.1" id="Capa_1" xmlns="http://www.w3.org/2000/svg" xmlns:xlink="http://www.w3.org/1999/xlink" x="0px" y="0px"
	 viewBox="0 0 469.341 469.341" style="enable-background:new 0 0 469.341 469.341;" xml:space="preserve">
<g>
	<g>
		<path d="M465.46,141.703c-5.845-8.292-16.397-10.764-25.402-7.079l-94.139-98.345c0.486-0.831,0.719-1.846,1.271-2.628
			c6.813-9.625,4.521-22.938-5.104-29.74c-9.646-6.792-22.938-4.51-29.729,5.115c-16.854,23.844-16.625,52.063-16.417,76.896
			l0.042,7.844c0,7.125,1.833,16.958,5.188,34.417c5.01,25.928,11.848,61.526,10.723,94.659l-67.038-70.03
			c2.646-0.113,4.974-0.504,7.753-0.504c11.792,0,21.333-9.552,21.333-21.333s-9.542-21.333-21.333-21.333
			c-44.438,0-78.979,12.552-102.646,37.292c-52,54.313-34.292,146.188-23.562,201.771c1.813,9.365,4.271,22.177,4.292,25.771
			l0.004,0.711l-52.65-54.997c0.546-0.013,1.126-0.069,1.667-0.078c11.771-0.208,21.167-9.927,20.958-21.708
			s-10.417-21.219-21.708-20.958c-20.313,0.354-46.604,2.865-69.896,19.26c-9.646,6.781-11.958,20.094-5.167,29.729
			c4.146,5.896,10.75,9.052,17.458,9.052c3.551,0,7.047-1.102,10.298-2.922c0.599,0.844,0.902,1.819,1.639,2.589l90.915,94.969
			c-0.872,1.697-1.471,3.594-2.603,5.104c-7.063,9.438-5.125,22.813,4.313,29.865c3.833,2.865,8.313,4.25,12.75,4.25
			c6.5,0,12.917-2.958,17.104-8.552c18.063-24.156,17.833-53.104,17.625-78.583l-0.042-7.844c0-4.757-0.885-10.961-2.432-19.598
			c13.62,1.974,29.198,3.639,45.432,3.639c19.451,0,36.625-2.816,52.193-7.526c1.604-0.292,3.182-0.523,4.698-1.185
			c18.24-6.206,33.771-15.594,46.13-28.497c33.529-35.034,38.027-85.643,34.151-132.094c5.754,0.953,10.811,1.542,15.307,1.542
			l15.229,0.083c25.333,0,52.083-2.333,76.208-19.302C469.918,164.651,472.231,151.338,465.46,141.703z M216.356,315.734
			c-19.744,0-39.117-2.88-53.62-5.48c-3.171-19.298-5.69-40.68-5.348-61.313l63.656,66.492
			C219.412,315.474,218.038,315.734,216.356,315.734z M288.543,291.693c-5.164,5.396-11.594,9.526-18.619,13.09l-102.78-107.358
			c3.449-7.779,7.839-14.926,13.648-20.992c4.586-4.799,10.105-8.641,16.12-11.992l104.143,108.792
			C297.774,280.022,293.72,286.285,288.543,291.693z M384.064,148.057l-15.104-0.083c-4.109,0-11.954-1.488-21.361-3.438
			c-1.555-8.923-3.169-17.395-4.66-25.115c-1.813-9.365-4.271-22.177-4.292-25.771l-0.017-3.275l55.003,57.458
			C390.409,147.947,387.169,148.057,384.064,148.057z"/>
	</g>
</g>
<g>
</g>
<g>
</g>
<g>
</g>
<g>
</g>
<g>
</g>
<g>
</g>
<g>
</g>
<g>
</g>
<g>
</g>
<g>
</g>
<g>
</g>
<g>
</g>
<g>
</g>
<g>
</g>
<g>
</g>
</svg>
