<svg id="Layer_1" enable-background="new 0 0 100 100" viewBox="0 0 100 100" xmlns="http://www.w3.org/2000/svg"><path d="m81.2867966 89.2911072 1.3148499 2.6347504c.6307678 1.2639694-.2508316 2.7581711-1.6622162 2.8172379l-39.629528 2.7534866c-1.0019455.0696106-1.7295036-.9357986-1.3501434-1.8657532v-.0000076c.8170662-4.4987869-2.6579933-8.7907944-7.3637047-8.7907944l-6.5463867-.2068558c-4.3024788-.2067871-7.7772884-3.8885803-7.3637047-8.3874359 0 0 .8895321-2.2649231-.1137486-4.8814468-.361948-.9618073-1.6754169-.7446594-2.2546349-2.7923813-.1964397-.734314.7860107-1.4685593.3206654-2.1408234 0 0-1.023859-1.0238571-1.023859-2.25457 0-1.4272232 1.4272175-2.0477219 1.2306519-3.4749374-.2067928-1.4375687-1.02386-2.8647842-2.8647861-3.07164-3.4851608-.2068558-5.326087-4.0954361-3.2783689-6.9498711l6.7864695-9.2862816c.6025925-.8245583.8685474-1.8581238.6955891-2.8646507-2.749423-16.0001831 7.3814106-27.6471424 11.7542458-31.0170288 15.5442234-11.6659334 44.595184-8.3875017 54.4098355 6.9498672 9.8250046 15.554512 5.9363632 29.8680229-2.4509506 42.7543182-5.1194153 9.4112969-5.3159867 20.4670143-.6102753 30.0748177z"/></svg>