<svg viewBox="0 0 24 24" xmlns="http://www.w3.org/2000/svg">
    <path d="M14.7866 3H9.21358C5.78743 3 3 5.78709 3 9.2129V14.7865C3 18.2123 5.78743 20.9995 9.21358 20.9995H14.7866C18.2124 20.9995 20.9995 18.2123 20.9995 14.7865V9.2129C20.9995 5.78709 18.2124 3 14.7866 3Z"
          fill="#EFEFEF"/>
    <path d="M9.21437 20.9985H14.7873C17.0391 20.9985 19.0149 19.7943 20.1047 17.9961H3.89648C4.98644 19.7943 6.96237 20.9985 9.21437 20.9985Z"
          fill="#D90028"/>
    <path d="M20.9995 14.7867V11.9951H3V14.7867C3 14.8569 3.00159 14.9266 3.00394 14.9962H20.9955C20.9979 14.9266 20.9995 14.8569 20.9995 14.7867Z"
          fill="#D90028"/>
    <path d="M12 8.99439H20.9955C20.9575 7.90284 20.6369 6.88189 20.1043 6.00293H12V8.99439Z" fill="#D90028"/>
    <path d="M11.9997 3H9.21358C5.78743 3 3 5.78709 3 9.2129V11.9908H11.9997V3Z" fill="#0152B7"/>
    <path d="M4.66655 10.6739L5.00795 10.4367L5.33311 10.6727C5.3689 10.6988 5.41749 10.6988 5.45351 10.673C5.48946 10.6471 5.50479 10.6012 5.49161 10.5589L5.37072 10.172L5.7008 9.91957C5.73579 9.89283 5.74981 9.84678 5.73572 9.80504C5.72155 9.76323 5.68239 9.73516 5.63834 9.73516H5.23785L5.10294 9.36452C5.10294 9.36452 5.08753 9.29688 5.00515 9.29688C4.96156 9.29688 4.92289 9.32543 4.90899 9.36679L4.78453 9.7352H4.38014C4.33621 9.7352 4.29701 9.76319 4.28288 9.80485C4.26864 9.8464 4.2825 9.89246 4.31731 9.91931L4.63591 10.1656L4.51005 10.5581C4.49649 10.6001 4.5113 10.6459 4.54675 10.6721C4.54675 10.6721 4.59735 10.722 4.66655 10.6739Z"
          fill="#EFEFEF"/>
    <path d="M7.28268 10.674L7.62408 10.4368L7.9492 10.6728C7.9851 10.6989 8.03366 10.6989 8.06964 10.6731C8.10554 10.6472 8.12096 10.6013 8.10774 10.5589L7.98692 10.1721L8.31696 9.91966C8.35188 9.89292 8.36597 9.84687 8.35188 9.80513C8.33772 9.76331 8.29855 9.73525 8.25447 9.73525H7.85402L7.71915 9.36461C7.71915 9.36461 7.69301 9.29405 7.62135 9.29696C7.57783 9.29874 7.5392 9.32552 7.52519 9.36688L7.40073 9.73529H6.99634C6.95241 9.73529 6.91321 9.76328 6.89912 9.80494C6.88484 9.84649 6.89866 9.89254 6.93347 9.9194L7.25219 10.1657L7.12622 10.5582C7.11273 10.6002 7.12758 10.646 7.16295 10.6722C7.16288 10.6722 7.21927 10.7181 7.28268 10.674Z"
          fill="#EFEFEF"/>
    <path d="M10.2408 9.29692C10.284 9.29801 10.3227 9.32388 10.3374 9.36456L10.4722 9.7352H10.8727C10.9168 9.7352 10.9559 9.76327 10.9702 9.80508C10.9842 9.84686 10.9702 9.89288 10.9352 9.91962L10.6052 10.1721L10.726 10.5589C10.7393 10.6012 10.7239 10.6472 10.6879 10.6731C10.6519 10.6989 10.6033 10.6989 10.5674 10.6727L10.2423 10.4367L9.90091 10.674C9.84035 10.716 9.78111 10.6722 9.78111 10.6722C9.74566 10.646 9.73096 10.6002 9.74433 10.5582L9.87038 10.1657L9.55167 9.91935C9.51686 9.8925 9.50303 9.8464 9.51724 9.80489C9.53148 9.76323 9.57057 9.73524 9.61454 9.73524H10.0189L10.1434 9.36683C10.1435 9.3668 10.1621 9.29491 10.2408 9.29692Z"
          fill="#EFEFEF"/>
    <path d="M5.00651 6.66628C5.0495 6.66931 5.08829 6.69321 5.10302 6.73393L5.23793 7.10453H5.63834C5.68239 7.10453 5.72155 7.13264 5.73572 7.17437C5.74981 7.21611 5.73579 7.26228 5.7008 7.28898L5.37072 7.54142L5.49161 7.92816C5.50483 7.97046 5.48946 8.01648 5.45351 8.04239C5.41749 8.06826 5.36894 8.0681 5.33311 8.04205L5.00795 7.80609L4.66655 8.0433C4.60523 8.08591 4.54675 8.04148 4.54675 8.04148C4.5113 8.01535 4.49649 7.96944 4.51005 7.92748L4.63591 7.53506L4.31731 7.28872C4.2825 7.26179 4.26864 7.21577 4.28288 7.17422C4.29701 7.13252 4.33621 7.10457 4.38014 7.10457H4.78461L4.90906 6.73616C4.90906 6.73612 4.93179 6.66098 5.00651 6.66628Z"
          fill="#EFEFEF"/>
    <path d="M7.62135 6.66602C7.57783 6.66602 7.5392 6.69454 7.52519 6.73589L7.40073 7.1043H6.99634C6.95241 7.1043 6.91321 7.13225 6.89912 7.17395C6.88484 7.21554 6.89866 7.26156 6.93347 7.28845L7.25219 7.53479L7.12622 7.92721C7.11273 7.96913 7.12758 8.01504 7.16295 8.04121C7.16295 8.04121 7.21674 8.0889 7.28275 8.04303L7.62416 7.80582L7.94927 8.04178C7.98518 8.06784 8.03373 8.06795 8.06971 8.04212C8.10562 8.01621 8.12103 7.97023 8.10782 7.92789L7.987 7.54115L8.31704 7.28871C8.35196 7.26201 8.36605 7.21581 8.35196 7.17411C8.33779 7.13237 8.29863 7.10426 8.25454 7.10426H7.85409L7.71922 6.73366C7.71915 6.73366 7.69695 6.66602 7.62135 6.66602Z"
          fill="#EFEFEF"/>
    <path d="M9.90083 8.04307L10.2422 7.80586L10.5674 8.04182C10.6032 8.06787 10.6518 8.06799 10.6878 8.04216C10.7238 8.01625 10.7392 7.97027 10.726 7.92793L10.6051 7.54119L10.9351 7.28875C10.9701 7.26205 10.9841 7.21584 10.9701 7.17414C10.9558 7.13241 10.9167 7.1043 10.8726 7.1043H10.4722L10.3373 6.7337C10.3226 6.69298 10.2839 6.66484 10.2407 6.66605C10.1596 6.66833 10.1434 6.73593 10.1434 6.73593L10.0189 7.10434H9.61454C9.57057 7.10434 9.53148 7.13229 9.51724 7.17399C9.50303 7.21558 9.51686 7.2616 9.55167 7.28849L9.87038 7.53482L9.74433 7.92725C9.73093 7.96917 9.74566 8.01508 9.78111 8.04125C9.78103 8.04125 9.83486 8.08893 9.90083 8.04307Z"
          fill="#EFEFEF"/>
    <path d="M4.54674 5.39619C4.51042 5.37123 4.49637 5.32385 4.51 5.28219L4.57287 5.08637C4.77702 4.85723 4.99783 4.64324 5.23337 4.44629L5.23792 4.45917H5.63825C5.68219 4.45917 5.72158 4.48719 5.73559 4.52889C5.74961 4.57056 5.73559 4.61673 5.70075 4.64328L5.37086 4.8959L5.49164 5.2826C5.5049 5.32502 5.48937 5.37085 5.45339 5.39702C5.41741 5.42278 5.36893 5.42278 5.33295 5.3966L5.00806 5.16061L4.66639 5.3977C4.66643 5.3977 4.61817 5.44527 4.54674 5.39619Z"
          fill="#EFEFEF"/>
    <path d="M7.62135 4.02057C7.57783 4.02189 7.5392 4.04912 7.52519 4.09048L7.40073 4.45889L6.99634 4.45885C6.95241 4.45889 6.91321 4.48688 6.89912 4.52847C6.88484 4.57017 6.89866 4.61618 6.93347 4.64296L7.25219 4.88937L7.12622 5.28191C7.11273 5.32372 7.12758 5.36963 7.16295 5.39591C7.16295 5.39591 7.22234 5.43951 7.28275 5.39758L7.62416 5.16044L7.94927 5.39637C7.98518 5.42242 8.03373 5.42254 8.06971 5.39678C8.10562 5.37084 8.12103 5.32482 8.10782 5.28255L7.987 4.89581L8.31704 4.6433C8.35196 4.6166 8.36605 4.57051 8.35196 4.52877C8.33779 4.48703 8.29863 4.45889 8.25454 4.45889H7.85409L7.71922 4.08829C7.71915 4.08829 7.69884 4.01822 7.62135 4.02057Z"
          fill="#EFEFEF"/>
    <path d="M9.78111 5.39601C9.74509 5.37056 9.73096 5.32386 9.74433 5.28201L9.87038 4.88947L9.55167 4.64306C9.51686 4.61628 9.50303 4.57023 9.51724 4.52857C9.53148 4.48698 9.57057 4.45899 9.61454 4.45895L10.0189 4.45899L10.1434 4.09058C10.1574 4.04922 10.196 4.02301 10.2395 4.02066C10.3128 4.01673 10.3373 4.08835 10.3373 4.08835L10.4722 4.45895H10.8726C10.9167 4.45895 10.9558 4.48709 10.9701 4.52883C10.9841 4.57061 10.9701 4.61666 10.9351 4.64336L10.6051 4.89587L10.726 5.28261C10.7392 5.32484 10.7238 5.3709 10.6878 5.39684C10.6518 5.42264 10.6033 5.42252 10.5674 5.39643L10.2422 5.16051L9.90083 5.39764C9.90091 5.39768 9.84478 5.44097 9.78111 5.39601Z"
          fill="#EFEFEF"/>
    <path opacity="0.13"
          d="M20.9978 9.21517V14.7831C20.9978 18.2133 18.2138 20.9973 14.7836 20.9973H9.21567C8.48598 20.9973 7.78851 20.8692 7.13574 20.6388L12.7484 20.1589C18.5466 19.3589 18.7707 15.4422 18.7707 15.4422L18.745 8.6392C18.745 8.6392 18.6235 4.63936 13.8043 3.00098H14.7836C18.2138 3.00098 20.9978 5.78492 20.9978 9.21517Z"
          fill="#160204"/>
    <path opacity="0.22"
          d="M3.00098 14.7831V9.21517C3.00098 5.78492 5.78496 3.00098 9.21517 3.00098H11.3719C9.68231 3.34033 5.11935 4.65217 4.4281 8.85047L4.39621 15.6981C4.39621 15.6981 4.56248 18.4886 5.79776 19.9733C4.11468 18.8599 3.00098 16.9527 3.00098 14.7831Z"
          fill="white"/>
</svg>
