<svg viewBox="0 0 24 24" xmlns="http://www.w3.org/2000/svg">
    <path d="M14.7995 2.95996H9.20146C5.7596 2.95996 2.95996 5.7596 2.95996 9.20082V14.7995C2.95996 18.2407 5.7596 21.0403 9.20146 21.0403H14.7995C18.2407 21.0403 21.0403 18.2407 21.0403 14.7995V9.20082C21.041 5.75896 18.2407 2.95996 14.7995 2.95996Z"
          fill="#C30B1E"/>
    <path d="M21.04 9.20329V14.7961C21.04 15.1561 21.0079 15.5097 20.95 15.8569H3.05289C2.99503 15.5097 2.96289 15.1561 2.96289 14.7961V9.20329C2.96289 8.84329 2.99503 8.48972 3.05289 8.14258H20.95C21.0079 8.48972 21.04 8.84329 21.04 9.20329Z"
          fill="#F8BF01"/>
    <path d="M9.76056 10.1316C9.76056 9.86541 9.54456 9.64941 9.27842 9.64941H6.21456C5.94842 9.64941 5.73242 9.86541 5.73242 10.1316V12.6773C5.73242 12.6773 5.82306 14.3461 7.76449 14.3461C9.67957 14.2896 9.75992 12.622 9.75992 12.622L9.76056 10.1316Z"
          fill="#C30B1E"/>
    <path opacity="0.13"
          d="M9.76297 10.1296V12.6239C9.76297 12.6239 9.6794 14.2889 7.76433 14.3467C6.15076 14.3467 5.81647 13.1896 5.74512 12.8039C6.51012 13.1767 8.37505 13.9096 8.86362 12.4182V9.64746H9.28083C9.5444 9.64746 9.76297 9.86603 9.76297 10.1296Z"
          fill="#160204"/>
    <path opacity="0.13"
          d="M21.0395 9.20308V14.7959C21.0395 18.2417 18.2431 21.0381 14.7974 21.0381H9.20452C8.47102 21.0381 7.77095 20.9095 7.11523 20.6781L12.7531 20.1959C18.578 19.3924 18.8024 15.4581 18.8024 15.4581L18.7767 8.62451C18.7767 8.62451 18.6545 4.60665 13.8138 2.96094H14.7967C18.2431 2.96094 21.0395 5.75737 21.0395 9.20308Z"
          fill="#160204"/>
    <path opacity="0.2"
          d="M2.96094 14.7959V9.20308C2.96094 5.75737 5.75737 2.96094 9.20308 2.96094H11.3689C9.67172 3.30165 5.08815 4.61951 4.39387 8.83665L4.36172 15.7152C4.36172 15.7152 4.52887 18.5181 5.76894 20.0095C4.07951 18.8909 2.96094 16.9752 2.96094 14.7959Z"
          fill="white"/>
</svg>
