<svg xmlns="http://www.w3.org/2000/svg" fill="none" viewBox="0 0 512 512"><path fill="#009EDB" fill-rule="evenodd" d="M512 176.5v158.4c0 95.8-76.9 174.1-172.3 176.4l-4.6.1H172.2l-2-.1-3.5-.2-1.4-.1-5.7-.5-3.8-.4-7.6-1.1-4.2-.7-2.4-.5-1.7-.3-2.9-.7-.9-.2-3.4-.8c-19-4.9-37-13-53.1-23.6v.1A174 174 0 0 1 55 462.6l-1.5-1.5-1.5-1.5-1.6-1.5-2.9-3.1-1.4-1.6-1.3-1.5-4.2-5-1.3-1.6a172 172 0 0 1-13-18.6l-2.6-4.1-.3-.6-1.3-2.2-2.6-4.8-1.2-2.4-1.2-2.5-1-2.4q-.7-1.2-1-2.2l-.2-.3-1-2.4-1-2.4v-.2l-1-2.4q-1.2-2.5-2-5.1l-.9-2.6-2.4-7.9-.7-2.7-1.9-8.1a118 118 0 0 1-1.9-11l-1-8.4-.2-2.4-.1-1.1-.3-5-.1-2.5-.1-3.3V176.6A140 140 0 0 1 2.1 152v-.1l.7-4.3v-.1l1.6-8.6.5-2.1.5-2.1 1.1-4.2 1.2-4.2.6-2.1q.7-2 1.3-4.1l2.1-5.9.2-.4q.7-1.7 1.3-3.3l.4-1q.7-1.5 1.3-3.1l2-4.5 1.7-3.6a179 179 0 0 1 25.2-37.7l1.8-2.1q4.6-5 9.6-9.8L58 46l1.7-1.5a175 175 0 0 1 25.6-18.9l3.7-2.2q10.2-5.9 21.1-10.4l4-1.6A174 174 0 0 1 165.7.3q5.3-.2 11-.3h158.5A177 177 0 0 1 512 176.5" clip-rule="evenodd"/><path fill="#fff" d="M119.3 132.5c-5 8.1-5.8 17.6-9.9 26 7.5-7 16.1-12.2 22.4-20.5 7.6-10 14.2-21.2 24.2-29.9-13.6 5.2-28 10.6-36.7 24.4m-9.9 32.1q-7.6 7.2-11 16.1l-.3-.3c1.2-5.2 3.4-9.9 4.8-14.9 4.1-13.7 3.4-30 16.7-39.2-6.9 1.7-12.6 6.2-17.8 11.9-10.7 11.9-9.8 29.5-8.4 45.2.4 4.8.2 9-.3 13.9 3.3-6.7 8.6-13 15-17.8 14-10.6 29.2-24.2 29.4-42.2-4.7 13.1-18.8 18.4-28 27.3m6.2 16.3c-10.9 10.3-23.7 20.5-26.1 35q-.3 3.2-1.1 6.2c-.5.2-.5-.3-.7-.5l1.4-18.1c1.3-17.6-8-37.3 2.2-52.8q-.4 0-.8.3-1.4 1.6-2.5 3.3a62 62 0 0 0-13 37.4c0 8.9 2.3 16.5 5 23.9 3.2 9 7 17.7 7.7 27.8 2.9-19.2 19.1-32.9 27.4-49.8a67 67 0 0 0 6.2-21.3 24 24 0 0 1-5.7 8.6m-5.7 27.6c-1 4-2 7.9-3.9 11.4l-1.2 2-2.3 3.6c-9 14.4-17.1 31-10.7 48.8q-.3.4-.6.3c-2.8-6.4-3.4-13.7-5.2-20.5a106 106 0 0 0-6.2-16.2c-5.4-11.9-11.2-23.6-8.4-38.1-2.2 4.6-3 9.7-4.2 14.7a84 84 0 0 0 3.5 38.3 50 50 0 0 0 8.9 16.1c5.8 7.5 12.8 14.6 17.2 22.7l1 .8a52 52 0 0 1 .5-22.3c2.9-10.3 6.5-20.4 8.7-31l.5-2.7q1.3-6.8 2.2-14t.2-13.9m10 113.6c-5.6-22.7-2.5-49-12.2-70.1 1.8 12-2.9 22.5-4 33.9-.9 9.3.7 18.4 4.4 26.3 1.1 2.3 3 4.4 3.6 6.8a50 50 0 0 1-8.4-11.1c-6.1-9.8-15.7-17.8-23.6-26.5a43 43 0 0 1-13-25.9 57.9 57.9 0 0 0 13 45.5q6.1 7.3 14 13.3c10.5 8.3 23.1 14.7 32.6 22-2-4.7-5.2-9.1-6.4-14.2m39.4 40.5a46 46 0 0 1-7.6-10.2q-2.4-4.6-4.4-9.4-1.9-4.8-3.5-9.7-2-6.4-4.5-12.6l-.8-2.1a117 117 0 0 0-18.8-28.4c8.2 16.4 4.7 37.6 15.3 53.1 3.3 4.8 8 9.5 12.3 13.4l-.2.2a51 51 0 0 1-11-7.5c-18-15.1-45.2-17.4-57-40.7q-.3-1-1-2l1 4.4c4.5 16.7 18.2 31.4 32.8 41 15.1 9.9 34.5 8.8 51.4 14.3zm47.2 11a74 74 0 0 1-16-6.1 44 44 0 0 1-6.3-4.3l-1.6-1.4c-8.5-7.8-16.3-15.9-24.7-23q-5.4-4.6-11.2-8.4a54 54 0 0 1 4.5 7.2l3.4 6.4q2.4 4.8 4.9 9.4l1.2 2.1q2.5 4.1 5.8 7.6a33 33 0 0 0 11.7 7.8q2 .7 4.3 1.2 3.1.6 5.6 2c-3.2.5-6-.3-9-1l-1-.3a97 97 0 0 0-9.4-1.5c-21.9-2.4-46 .3-61.6-17.4a61 61 0 0 0 34.2 28.2c15 5 30.6 2.4 45.3-1.3l16.8-4.4 1.1-.2c2.6-.4 5.5-.4 7.8-1.2zm73.8 15.2q-8.2-5.1-17.1-8.8l-1.5-.6-5.6-1.9-2.9-.8-2.8-.7a66 66 0 0 0-23.6-.8l-2.5.4q-2.6.5-5.2 1.2-9 2.5-17.8 6.4l-15.7 6.8a52 52 0 0 1-46.9-4.1c6.4 8 15 12.9 23.8 16.3 16.4 6.5 35.5 1.5 49.4-7.4 5.3-3.4 10.3-7.6 15.5-10.7a34 34 0 0 1 9.4-4.1q2.7-.6 5.7-.7l2.7.1.7.1 3 .5q3.4.7 7 2.2c15 6.1 30.2 21 43.4 34.7q4.2-3.3 7.7-7a165 165 0 0 0-26.7-21.1M376.8 287.6l-3-1.6a131 131 0 0 1-24.2 34.4l-17-17.1q12.5-13 20-28.9l-3-1.6a105 105 0 0 1-19.5 28.2l-15.4-15.4a84 84 0 0 0 15.7-23.3l-2.9-1.6a79 79 0 0 1-15.1 22.5l-17.1-17.1a53 53 0 0 0 10.9-17.1l-2.9-1.6q-3.7 9.2-10.3 16.4l-15.5-15.5c4.4-4.9 7-11.1 7.3-17.7h21.9a48 48 0 0 1-3.5 16.8l2.9 1.6a55 55 0 0 0 3.8-18.4h24.4a77 77 0 0 1-6.7 30l3 1.6a81 81 0 0 0 7-31.6h21.9a102 102 0 0 1-9.8 42.1l3 1.6q9.7-20.4 10-43.7h24.2c-.2 19.8-5 38.5-13 55.3za134 134 0 0 0 3.7-108.8l-3 1.3q9.1 22.5 9.5 47.4h-24.2q-.4-19.9-7.6-37.8l-3 1.3q7 17.4 7.4 36.5h-22a81 81 0 0 0-5.5-27.9l-3 1.3a76 76 0 0 1 5.2 26.6h-24.2a56 56 0 0 0-3.3-17.1l-3 1.3a50 50 0 0 1 3 15.8h-22a28 28 0 0 0-7.2-17.7l15.5-15.5a50 50 0 0 1 10.7 17.4l3-1.3q-3.7-10.2-11.4-18.4l17.1-17.1a78 78 0 0 1 16.6 26l3-1.3a84 84 0 0 0-17.2-27l15.5-15.5a103 103 0 0 1 22 33.8l3-1.3a107 107 0 0 0-22.7-34.8l17.1-17.1a131 131 0 0 1 27.8 42.4l3-1.3a134 134 0 0 0-74.3-74.1l-1.2 3q23.6 9.5 42.4 27.7l-17.2 17.2q-15.2-14.6-34.2-22.3l-1.2 3a103 103 0 0 1 33.1 21.6l-15.5 15.5a81 81 0 0 0-25.6-16.7l-1.2 3q13.6 5.6 24.5 16l-17.1 17.1a55 55 0 0 0-16.2-10.6l-1.2 3a50 50 0 0 1 15 9.8l-15.4 15.5q-7.7-6.7-17.7-7.3v-21.9q9.4.3 18 3.9l1.3-3q-9-3.8-19.3-4.1v-24.2q14.8.3 28 5.8l1.3-3a81 81 0 0 0-29.3-6v-21.9q19.6.4 37.3 7.5l1.2-3a107 107 0 0 0-38.5-7.8V98.3q24.8.4 47.3 9.4l1.2-3a134 134 0 0 0-110.2 4.5l1.5 2.8a131 131 0 0 1 57-13.8v24.2c-16 .2-31.6 4-45.8 11.1l1.5 2.8a105 105 0 0 1 44.2-10.7v21.9q-17.9.3-34 8.2l1.5 2.8a77 77 0 0 1 32.5-7.8V175q-11.2.3-21.3 5.1l1.5 2.8q9.4-4.4 19.8-4.7v21.9q-5 .3-9.6 2.2l1.5 2.8q4.7-2 9.9-1.9c6.9 0 13.4 2.7 18.2 7.6 4.9 4.9 7.6 11.3 7.6 18.2a25.9 25.9 0 0 1-51.7 0 25 25 0 0 1 16.1-23.8l-1.5-2.8q-4.5 1.9-8 5.1L221 192q6-5.6 13.4-9.1l-1.5-2.8q-7.8 3.7-14.2 9.6l-17.1-17.1a78 78 0 0 1 20.1-14l-1.5-2.8a77 77 0 0 0-20.8 14.6L184 154.9q11.6-11.3 26.2-18.5l-1.5-2.8a106 106 0 0 0-27 19.1l-17.1-17.1q14.7-14.2 32.8-23.4l-1.5-2.8a135 135 0 0 0-60.4 60.7l2.8 1.5a133 133 0 0 1 23.9-33.7l17 17.1q-12 12.5-19.5 28.1l2.8 1.5q7.3-15 19-27.4l15.6 15.5a83 83 0 0 0-15.3 22.3l2.8 1.5a78 78 0 0 1 14.7-21.6l17.1 17.1q-6.7 7.1-10.5 16l2.8 1.5a53 53 0 0 1 10-15.3l15.4 15.5q-6.7 7.4-7.3 17.7H205a50 50 0 0 1 3.9-17.9L206 208a55 55 0 0 0-4.3 19.5h-24.2a78 78 0 0 1 7-31l-2.7-1.5a81 81 0 0 0-7.5 32.5h-22a102 102 0 0 1 10.2-43l-2.8-1.5a107 107 0 0 0-10.6 44.5H125c.2-19.7 5-38.8 13.3-56l-2.8-1.5a133 133 0 0 0-8.4 96.9l3.2-.8a129 129 0 0 1-5.3-35.4h24.2q.2 15 4.7 29.5l3-.8q-4.1-13.8-4.5-28.7h22q.3 12 3.9 23.3l3-.8a79 79 0 0 1-3.7-22.5h24.2q.3 8.6 3.1 16.6l3.1-.8a50 50 0 0 1-3-15.8h22c.2 6.6 2.8 12.8 7.2 17.7L218.8 264a50 50 0 0 1-10.7-17.4l-3.1.8q3.8 10.6 11.6 18.9l-17.1 17.1a78 78 0 0 1-18-30.1l-3.1.8a80 80 0 0 0 18.9 31.6l-15.5 15.5a103 103 0 0 1-24.7-41.7l-3.2.8c5 16.1 13.6 30.8 25.6 43.2l-17.1 17.1a131 131 0 0 1-32-54.4l-3.2.8a134.1 134.1 0 0 0 71 83.2l1.6-2.8a130 130 0 0 1-35.1-24.5l17-17.1q13.3 12.8 30.1 20.5l1.6-2.8a105 105 0 0 1-29.3-20l15.5-15.5q11 10.6 24.6 16.3l1.6-2.8q-13.3-5.6-23.9-15.7l17.1-17.1q8.4 7.8 18.8 11.6l1.6-2.9q-10.3-3.6-18-11l15.4-15.5q7.6 6.7 17.7 7.3V280a52 52 0 0 1-15-2.8l-1.7 2.9q8.1 2.9 16.7 3.1v24.2q-15.1-.4-28.7-6l-1.6 2.8a82 82 0 0 0 30.3 6.4v21.9a103 103 0 0 1-41-9.2l-1.7 2.8c13.2 6.1 27.7 9.4 42.7 9.6V360c-19.2-.2-37.7-4.6-54.6-12.6l-1.6 2.8a134 134 0 0 0 118.3-1.4l-1.5-3a130 130 0 0 1-57.3 14v-24.2c16.3-.2 32-4.2 46.2-11.3l-1.5-2.9c-14 7-29.2 10.8-44.7 11v-21.9q18.5-.4 34.7-8.5l-1.5-2.9a78 78 0 0 1-33.2 8.2v-24.2q11.8-.4 22-5.4l-1.4-2.9a51 51 0 0 1-20.6 5.1V258c6.6-.3 12.8-2.9 17.7-7.3l15.5 15.5q-5.6 5.2-12.6 8.7l1.5 2.9q7.4-3.6 13.4-9.3l17.1 17.1a77 77 0 0 1-19.4 13.6l1.5 2.9a84 84 0 0 0 20.2-14.2l15.4 15.4a105 105 0 0 1-25.6 18.2l1.5 2.9q14.6-7.4 26.4-18.8l17.1 17.1a131 131 0 0 1-32.4 23.2l1.5 3a134 134 0 0 0 60.2-61.3"/><path fill="#fff" d="m251.5 209 .3-2.1h-1.5l-.3-2.9v-.1l.8-.6v-1.5h-4.7v-1.5l.6-.4-1-.4-.9 1.1-.3 1.2-1.4.3v.7h-1v1.8l-3.8 3.2-6.3-.2h-1.3c-.5 1.2-1.9-.1-1.9-.1-.3-.8-2.2 0-2.2 0 0 1.5-2.6-.7-2.6-.7l-4.7-3.4c-2.7-2.5-6.8.7-6.9 1.4.1 1-.9 1.1-1.7.9l-1.4-.5s-.9-.3-1.8-.3q-1 0-1.3.6c-.4 1.1-2.2.8-2.2.8l-.3.6-1.4.3-.3.8-1.6.3 4.1-.1c1.1-.1-.4 2.3-1.1 2.2l-1.9.1-.7.7H199l-.8 1.1-2.6-.1s-1.5 1.2-1.4 1.6c0 .4-.3 1.7-.7 1.7s-1.2 1.2-1 1.6c.3.4-.8 1.8-.8 1.8l-.3 1.4-.8.3v3.7l-1.6 1.1v1.6l-.7.8-1.7 1.8.2 1.4v.8l-2 2.2.4 2.2-1.2.4-.3 1-.5 2.9 1.4.1c.7-.3.5 1.8 0 2.1s-2 .8-1.2 1.4-2.2.4-2.2-.4-1.6-1.5-2-1.2c-.2.2-.6-.3-.8-.7l-.3-.5c-.7-.7-2-.7-3.1-.6-1.5.2-3 .7-3 .7l-.6 2.2c-1.5.3-2.4 2.7-2.4 2.7-1.2.4-2.2 1.9-1.8 2.3s-.7.5-.7.5v3l-.7 1v3.3c.9 0 .8 1.5.8 1.5-1.4.1-1.1 1.9-1.1 1.9l-2.8 1-.5.8-3.5-.1-1 1-.8-.9H150l-.3-.7-1.4-.3v-1.5l-2 .1-.5.8-2.2.1c.1 1.4-2.2 3.4-2.4 2.9-.3-.5-1.8-2.1-1-2.3.6-.3 2.3-.5 2.3-.5v-1l-5-.1-.5.8-2 .1v2.2l-.9.3c-.7.4.1 1.9.1 1.9 1 1 0 2.5 0 2.5-.9.8.6 2.3.6 2.3 1.1.3-.7 1.1-.7 1.1.3 1.4 1.1 1.8 1.1 1.8-.8 1.4.5 2.1.5 2.1l.1 2.3 1 .6v1.5l.4 1h2.2v-3.4c-2-2.2 1.5-2.7 1.7-1.9s1.6 1.2 1.6 1.2c.3 2.1 2.6 3.3 3.2 1.2s1.2-.8 1.6.1 3 3.3 3 3.3h2l.3 1.9c2.4-.1 3 .1 4 3.3s3.5 4 3.5 4l1.9-.1c0-1.6 1.9.3 1.9 1.1q.2.6 1.2 1.7c1 1.1 2.4 2.3 2.4 2.3l3.7.8.6.5 2.7 2.2 2.6-.3h1c.8-2.3 4 .1 4.3 1q.2.5.9 1c.7.5 1.6.9 1.8.5q.5-.7 1.4.3l.2.3.3.9v.3q.5 1.7.9 1.7.3 0 .4 0l7.7-.1 2.7-2.3h.2l6.7-.1c3.5-.1 1.4-4.9.7-4.9q-.6-.5-.4-1.7c.1-1.5.8-3.3.8-3.3l-1.6-1.5-.3-.3-3.4-3.2-4.6-4.2q-1.5-.2-1-1.6c.2-.8.8-1.7.8-1.7 1.8-1.1-.4-2.9-.4-2.9.3-1.6-1-3.6-1-3.6-2.3-1.6-1.7-4.8-1.7-4.8v-2.2c-2-1.9.8-2.2.8-2.2.9-1.6-.7-2.9-.7-2.9l-.1-1.8-2.2-.3-.3-6.5-5-7c-.8-.3-.2-1.9-.2-1.9 1.2-.7-.3-2.3-.3-2.3l-.1-3 2.8-.3.7-1.1h1.4l-.1-3.6q.4-1 1-1h.7l.6.2 1.9.1.2-.4.9-1.7.3-1.5v-.1l-1.5-.1c-1.6-1-.8-4.5-.8-4.5 2.6-3.8 5.5-1.6 5.5-1.6l1.9-.1 1 1c.8 1.4.1 3.1-.4 3.9l-.3.5q-.2.3-.3 1.1v2.4l.1.9.5 3.5-1.8 1.5c-1.5.8-1.5 2.7 0 3.2 1.2.1.8 2.7-1 1-2 0 .4 1.5.6 1.7 2.2 1 1.7-1.2 1.7-1.2l1.2-1 2-1.6q.5-.3.9-.1c1.1.4 2.4 2.3 2.4 2.6s5.4.1 5.4.1c1.5 1 2 3.4 2 3.4 1.5-1.9 4.6-.1 2.3 1 2.2 1.4 2.2 2.6 2.2 2.6 1.8-.6 1.8.8 1.8 1.2l.5-2.1c-2-1.5 2.7-2.1 1.4.7l-.8 1.2 1.4 1.1.1 3.2c3-.3 2.2-4 2.2-4l1.4-.3c0-1.2 1-.6 1-.6-.8-3.2.5-4.6 1.4-5.2l.7-.3c1-.2 1.3-1.2 1.6-2.2q.4-1.7.3-1.9c-1.2-.5-.5-2.5.8-.8s-.8-3.3-.8-3.3l-1-1-1.5-.1-.2-1.5h-2.4l-.4 1.9-.9.2-.3-.6-.4 1.5h-2.4v-1.7l1.4-.4.5-.8.2-1.2.2-1h1.8l2.3-.7q.1-1.3.5-1.6c.4-.4.8-.2.8-.2l.8.7 1.2 1 .1.8-.8.4v1.1l.3 1.5h1.1c.4-2.2 3.2-2.2 4.1-.8l.8-1.9c-1.9-1 0-2.5.5-1.8s1.8-1.8 1.8-1.8 1 1.2 0-.4.7-2.5.7-2.5c-.3-1.6 1.8-1.4 1.8-1.4l.1-2.2-1.9-.1c-.4 1.9-2 .3-1.2-.1s1.6-1.2 1.6-1.2v-1.4l.8-.3.1-1.4h2l1.8-.8.4-.7 2-.1 2.6-2.5-.3-1.1c-1.4-.2.2-1.5.2-1.5m-71 121.5L179 329l-1.6-.3 1 1.6.2 1.2 1.4.4.5.8 1-.5zm-29.9-37.2-.7-1.5-.9-.7-.7-1.9-2-1 1 2.5.5 1.2.5.8.5.7 1.5 1.4.5-1zm-9.2-8.2V283l-1.2-.4v-.7h-.7v1.4h1.1v1.8zm106.1-87-.8.1.1.8.8-.1zm.4-1.1-.2.8 1.1.3.2-.8zm1-1-.2.8 1 .1v-.8zm2.2-.8v.8h1.1v-.8zm7 .1-.1.8.9.1v-.8zm1.8.4-.1.8.9.1v-.8zm1.8 1.1v.8h1v-.8zm2 1.3h-.8v1h.8z"/><path fill="#fff" d="m197.2 234.1-2.4-.3v1h.8c1 1.9 0 6.6 0 6.6s-1.5.1-1.8-.7-1 1.8-.4 2.2 2.4 0 2.6 1.5c0 1.5 1.2-1 1.2-1z"/><path fill="#fff" d="M198.7 255.7q-.5 0-.6.6t.6.6q.5 0 .6-.6t-.6-.6m-2.7 4.5v1l1-.1v-1zm1.4-7-.1 1.1 1 .1V253zm.7-7.5v-1l-2 1.4-1.3-.8v3.3l2.2 2.9.8-1.9.3-1.2-1-.4v-2.1zM199.6 259.7a.6.6 0 1 0 0-1.2.6.6 0 0 0 0 1.2M199.7 244a.6.6 0 1 0 0-1.2.6.6 0 0 0 0 1.2M331 211.1c-.5.5-1.8.8-1.8.8l-.4 1.5-.7.5v1.4c0 1-1.4 1.5-1.4 1.5l-.5.7s-3.3.2-3.7 0l-.4-.3v-.2c-.5-.7.2-1.7.8-1.6.8.1 0-2.3 0-2.3l1-.1s.1-2.5.5-2.5 0-.8-.7-1.2c-.5-.4-1.2-1.8-1.8-1.6h-2.7l-.4.8-1.2.2-.3.1v1.4c-.9 1-4 3-2.7-.4l.4-.8v-1.2l-2.4-.1s-1.2-.4-1.2-1l-.1-1.2-2.8-3.2-3.4-.4-.3-.7-2-.3q-.4-.2-1-.3-2.3-.6-3.1 1-.3.6-.1 1.3c.4 2.1 1 2.9-.3 2.9s-1.6-1.1-1.6-1.1-1.1-.4-1.1.1-.4 1.6 0 2.2c.4.5-.5 1.4-1 1-.3-.4-1.4-1.6-1.1-2.1s-2-3 .3-3.4-.1-1.6.7-1.9l1-.5h1.2l.7-.5-1.7-.3-1.1-.1-2-.1c-2 1.4-2.4 3-2.4 3-1 1.8-3-.1-3-1.4q0-.3.3-.5c.9-1.1-3-.1-3.7.4q-.5.3-1.3.3l-1.4-.1c-.4 1.2-2.3-.1-1.8-1q.6-1.3.5-1.4l-.7-.1-.8 1.5c-2 0-2.4 1.1-2 1.8s-.5-.1-.8.8 0 1 .9 1.4-.4.4 0 1.1c.4.4 1.2.3 1.5.4q.4.1-.2.5l-1 .5c-.8.3-2 .1-2 .1q0 .5-.3.6c-.8.5-2.4.3-2.6-.1l-2.3-2.9-2.6-.1q-.1-1 .3-1.2c.4-.3 1-.3 1.4-1.2.5-1.5.8-4 .8-4s-2.2-.1-2.3.6-1.5 1.1-1.5 1.1-1.1.4-.7 1-.8.8-.8.8v.7l-.1.5c-1.1 1.1-3.8.1-4.2-.3l-1.6-.7-1.6-1.1-2 .8-.5.5h-2v1.6l3.6.4v.1l.3 3.3-1.6-.5h-1l-.4-.8-.8-.1v3l.8.7.7.7 1.4.1.3 1.6 3.5.1.4.7 2 .1 3.9 4-.3 1.2-.7.4c.3 1-1.8.4-1.8.4v.8l.9.1 1 .5 1.4-2.3c1.5-1 2.2.4 2.3 1.2s-.7.7-.7.7v1.9l.8.3c1.4 1.6-.5 2.6-.5 2.6l-.4 1.4c-.4 1.2-2 1-2 1l-.4.8-1.6.4 3.2.4q.6-1.7 1.5-.8c.4.6.4 1.5.4 1.5l.8.1-.1 1.5.8.3v4.4l1 1.1c1.6-.7 1.6.4.8 1s-.3 3-.3 3l-.7.7v1.1l-.8.6v1.5c-1.4-.7-3-.4-3.4 0-1.2-.8-3.8-.5-3.8.1.8 1.1-1 1.4-1 1.4l-1 1.1c.8 1.4-.6 1.5-.6 1.5v2.6l-1.6 1.5v3.5c0 1 2 1.1 2.5.6.3-.4 1.3.4 1.8.8l.3.3h1.2v-.7l.3-1.8-.8-.4v-4l1.4-1.5c1.4-.5 1.2 2.5 1 3.6v.4c.2 1.5.9 1.4 1.6 1.1 1.4-.6.3 1.5-.8 1.4q-.7 0-.6.6l.2.8.7.3-1.2 1-1.1 1.2-1.4-.4-1.6-.1-.5-1-1-.1-.1 1.9-.7.8-1.6 1.7c1.7 0 .6.9-.3 1.3l-.6.2c1 .4 0 1.5-2.8.8l-.6-.2v1l-1 .1 1 1.1.6.1h.4l-.4 2.2v.1c0 1.8-4.5.5-4.9.1v2.5l-.9.1.1 1.7v2.3l1.4-.3v1l3.7.1.7-.7 3.3-3.4 1.3-1.4 3-.7c.4-1.4 1.7.3 1.7.3 1.4-.1 1.6.8 1.6.8l1.8.3.4.1c.9.3.2.5.3 1 0 .8.8.5.8.5l.3-1.8.8.1-.5-.6-.3-.3-1.5-.7-1.6-.7c-1.1-1.5.3-1.2 1.4-1.1h1.8l1.5 2.2.5 1.2c0 .7 1 .8 1 .8l1.2-.1.4 1h1.2l.4.8h2.4V273l-2.2-.4-.1-1.4-1.6-.4q-.3-1.5 0-2.1.1-.4.5-.3.3 0 .6.5l.8.1-.2-1.5-.1-.6.9-.3-.3-2.9-.8-.3v-1l3.4.1c-.3-1.8 0-2.6 0-2.6h1l.2.7 1.2.1 2.9.3h.2c1.6 1 .8 2.2.3 2.5s-1.5.3-1.5.3l-.3.5-3.5.3-.3 1.4c-1.8-.3-2.4 1.6-2 2.6s0 1.8 0 1.8l1.5.7 1.9-.5c.3-1.4 1.5-1.7 2.6-2.5 1-.8 2.8 1.5 2.3 2.6l-.2.3q-.5 1.2-.4 1.2v1.2l-1.3.5-1.1.6-.1.7h-3.6l-.7.7-1.8.1-.5.8-1.2.1s-2 1-1.2 2.1-3.4 1-4.3-.5c-.2 1.1-1.2.5-1.6.3l-.2-.1-1.5-.4-.1-2.1c-.3-1.4-2.8-1.4-2.7-.4s-4.6.4-5 .4l-1.6.8-1.5.9v.7l-2.5.3-1 .5-.5-.8h-1l-.4.4-.3.5-.4.6c-2 .1-4 1-4.8 1.7q-.5.5-.4.8c.3.7-1 1.4-1 1.4l-1.3.4-.8 1.2-1.6.6-.3 2.9-.8.6v1.2l-1 .3v.7l-1.4.1.8 2.1 1.1.5c2 .3 1.1 2.6 1.1 2.6l1.1.1.5 1.5 1.1 2.2c.4 1.7 1.6 1.2 2.2 1.1.5-.1 1.1 1.7 1.1 1.7l5.4.1s-.3.5.7.8c.5.1 2.6.3 4.5.3 1.6 0 2.9 0 3-.2q0-.4.4-.6c.9-.7 3.4-.6 4.6.2 1.5 1.1 3.5.4 3.5.4l1.5 1.8.5.7 1 2.4.4.6 2.3.7 1.6.4.5 2.3 1.2.1.4 1.5c1.5 1.1-.4 3.4-.4 3.4v3l1 .5v1.1l1.8 1.8 2 .1 3.4 3.6 1.8 1.9 1.7.5 2.4.7.7 2.2 1-.1.9-.7 3.2-.1 1.6-1.5 1.8-.3 12.8-10.9 2.2-1.9-1.4-.8v-3c2.4-1.8 2.6-4.9.3-5.2-1.7-.2-.9-2.1.7-2.3l1-.4v-1.2l3-2.9v-2.2l-6.8-5.6c-1.4-.5-1.5-2.2-1-3.8.6-1.9 1.9-3.8 3-3.7 1 .1 1-2.1.8-4.4-.3-2.7-.9-5.8-.9-5.8l-1.1-.5.3-3.3h-1.5l-2.4 3.2-.3.9-.4 1.3q-.2 1-1.3 1.5a15 15 0 0 1-7.7.4c-.4-.4-3.2-1.6-3.2-1.6s-2.2-1.8-2.6-1.2-2.3-.7-2.3-.3-1.8-1-1.8-1l-2.7-1 2-.4-.3-1.3-.1-.3.3.2 3.2 1.6c.4.6 2.2.4 2.2.4l.5.7s1-.1 1.8.7c.7.8 4.2.1 4.2.1l.9.8 1.5.5 2.5.1 1.7.1.1-2.6.1-.1.7-.7-.1-1.7 1-.8v-1.4l.8-.3.1-3 .7-.1v-6.6l-2-1.9c-.1.7-2.3.7-2.3.7s-.5 1-.9 1 .5 1.2.3 2.1c-.3.8-1.4.8-1.4.8l-2 .6-.5.7h-2.2l-.2-1.2-.1-.6.8-.2 1.7-.5 1.4-.7.7-1.4c0-1.4 1.8-1.2 1.8-1.2s3.1-2.6 3.2-3.8 1.2-4.7 3.1-4.7h3.5c1.4-.5 1-2.3 1-2.3l1.7-.3.3 1s2.4.3 2.7-.1.8-1.4 1.5-1 2.8-1 2.8-1c.1-1 3.5-.6 3.5-.6l.4-1.2s-2.3-3.2-2.7-3.2-2.6-1.9-2.8-1.2q-1.3-.4-1.7-1.5c-.4-1-.4-2-.4-2l-.8-1.9c0-1.1-2-3.4-2.4-3.2q-1.1-1-1-1.9.4-1.3 1-1.5c.4-.1 1.2-1.1 1.6-1.7l.3-.4.7-1.9 2.3-.7.3-1.8-1.2-.1s1.4-2.5 2-2.5h2c1.5 0 3.3-.1 3.6-.3.4-.3 1.2-2.5 1.2-2.9s1.1-.6 1.5-.7 1.4-1.2 1.6-1.8c-.3-.6-1.2-4.1-1.7-3.5M287 258l-.2-.2v-.2q.1-.2 0-.5-.3-.2-.7-.2t-1-.2l-.2-1c0-.8.3-1.9.2-2.3-.1-.6 2.3-1.4 1.9-.1s0 1.8 0 1.8c1.8-1.6 3.2.1 3 .6 0 .4 1 .8 1.7.4s1.5 1.2 1.2 2.1c-.3.8-2.7.7-2.8-.1s-.5-.5-.8-.1c-.2.3-1.1.6-1.8.4zm81.5-3.1q0-.5-.4-.6c-.6-.3-1.6.2-2.1.5l.4.7q1-.5 1.3-.4zm3.6 16.4-.8-.1q-.2 1.1.7 1.6l.2-.8q-.2-.2-.1-.7m3.7-3.4-.8.2q.1.9.5 1.7l.8-.3zm1-.5v-.2q0-.3-.2-.9l-.7.4v.6q-.1.4.4.7l.6.1-.2-.8zm-7 5.8c-.7.5-.4 2.6 0 2.1.6-.5 1.2 0 1.3-1.5.2-1.6-.6-.9-1.2-.6m-32.5 9.4v1.2l1.2.1.1-1.1zm0 3.9c-.3-.7-1-1-1.2-1l-.3.8.3.1.2.7q0 .2-.2.2l.6.6q.8-.7.5-1.4m-101 26.4.3-.3-.5-.6-.8.7-.4.3.4.3 1 .7.5-.7zm10.8 9.5-1.4-.7-.4.7.8.4-.3.3.6.6.7-.7.4-.4zm-38.7-177.2-.6.6.8.8.6-.6zm24.5 25.6-.5.6.8.7.5-.6zm-1.6 1.2s-1.2.1-1.5-.3l.1 1.3h2c1-.1-.6-1-.6-1m43.5-38.7-.1-.2h-.2l-1.4-.1-.1.8 1.2.1.8 1.3.7-.4zm5.5-29.2-1.3.8-1-.6-.3.7 1 .7.3.1.2-.1 1.5-1zm6.2 3.3-1.1.9-.7-.7-.6.6.9 1 .3.3.3-.2 1.4-1.1zm-41.6 30.4c-1.2 0-1-.7-1.4-1.1s-3.2-.3-3 .1c0 .7 1.1 1.5 1.1 1.5s2 .1 2.2.6c.1.4 1.5.5 1.6.1s.7-1.2-.5-1.2m14.2-5.4q-1 .1-1.5-.5l-.3-.5c-.1-.7-1.6-2.5-1.7-1.1s-1 1.4-.8 2.3c.1 1 .5 2.4 1.1 2.6l1.7.3q1.3 0 1.4-.7 0-.8 1-.8c.9-.1 0-1.7-1-1.6m23.3-22.2c-.7.3-2 .1-2 .1H278c-.1-1-2.3-.6-2.4 0s-1 .7-1 .7l-3 .3c-.3.8-2 1.4-2 .8-.3-1.2-2 1.5-.3 2.1 1.8.6 3.5 0 3.5 0l.4-.8 6.8.1c.5-.6.8-1.4.8-1.4s1.6-.5 2.3-.3c.5.3 0-1.9-.7-1.6m-12.7 8.6-1.8-1.8v-1.5l-.5-.5-.5-1.9-1.8-.6-1.8.7-2 1.2-2 .3-1 1.3 4.3.4.8 1.4 3 .3 2 2.1c2 .4 2.4-.4 1.3-1.4m6.8 12-.5 1.2.7.3.5-1.2zm43.2-1.4c-.7-.8-3.6.2-3.4 1.2q.2 1.2 1.8 1.7l2 .7s2.5 3 2.4 1.5c-.2-4.1-2-4.3-2.8-5.1m35.2 50.9s-1.9-1.4-1.8-2.1-1.9-2.1-1.8-2.6-1.8-1.6-1.6-2.2-.9-2.1-.9-2.1l-2-1.9v-.3l-.3-1-1.6-.1-3.2-4 .1-1.1-.9-.1v-1.5l-.9-.6-1.5-.1-1.4-1.5-1.6-1.8-.3-1.5h-1.5l.2-2.3v-.6c1-1.2.4-3.6.4-3.6l-1.4.5q-.8.2-1.4 0c-.9-.4.4-1.4.4-1.4v-1.1l-.8-.8s-2.3.3-2.4-.1l-.5-2.2v-2.3l-1-.4v-.8l-1.6.1v-1.6l-.8-.3-.8-.4v-1.6l-3-.1-1-1.4-1-1.6-3.5-.3-.8-.8-1.4-.3-1-.4-.4.7-2.6.1-.1.8c-.8.4-3 .4-4.7.4q-2 0-2.2.2l-.6 2.1q-.2.8-.7.8c-.7 0-.4 1.8-.4 1.8l2.3.1c.5.1.5 1.5.5 1.5 2-.1 2.8 2.6 2.6 3.3-.3.7.8.7.8.7s0 2.2-.3 2.7 1.8 1 2.3 1.8-.3 3.6-.7 3.7 1.1.5 1 1.2.4 0 .5 1.1l.4 3.4 1.9.1c.3-1.8 3.8-1.8 4.3-1.6 2.3.8 4.1 4.4 4.1 5.2s-1.5 1-1.5 1l.1.9.2 3.1.5.2.3.2c2 1.1 3.3 3.7 3.1 4.1-.3.6 1.6.4 1.6.4.3-2.5 2.6-1.7 2.7-.8l.5 2.6.7 1.2 1 1 1.5-.1.4.8 1.8.3s1.5 1.7 1.6 2.1 2.2.3 2.7.4 1.4.5 1.5 1.2l.1.4.8 1.4s1.6.4 1.8 1 .8 1.8.8 1.8l1.4 1.1.1 1.2 1.5.1.4 1.6 2.4-.1 1.4-1 1.1-.7q1.8-1.3 2-2l.2-1c.2-.7.7-1.5 1.5-1.2 1.3.5.4-3 .4-3m-73.4-46.9-1-.7s-1.4-.1-1.4-.5c0-.3-.8.9-1.4 1.2l1.5.8c1 0 1.8.8 1.8 1.2s1.5.3 1.5.3v-1zm-4.2 0q0 .2.4 0-1.2-.6-.4 0m0 4.7-1.1-.3v1.2l1.5.1zm14.2 12.9c-.7 0-2-.8-1.6-1.4s-2.3-1.1-2.3-1.1-2.3-2.2-1.5-1.9.4-1 .4-1-1.6.3-2 .1-.3-1.4-.3-1.4-1.6-.4-1.6 0 .5.4.8 1.2 0 2.2 1.4 2.5q1.6.4 1.6 1.1c0 .6 1.6.7 1.6.7l1 .6 3.3 2.7V152c0 .1-.2-1-.8-1m6 3.3h-1.4s-.1 1.1-1.1.7-.4-.3-1.2-.4-.6 1.4-.5 2.1v.2l-.7 2.7v.4l.6.3q1 .2 1.6 0c.4-.1 1-1.2 1.2-2.2v-.7c-.3-1 1-1.4 1.8-.3l1.4-.1.3-1.2z"/><path fill="#fff" d="M252.4 259.1s-.5.8-1.3 0-1.5 1.8-1.8 2.5c0 0 .3 1.1 1 1l1.4-.5q.7-.3 1-1.7c.1-.9-.3-1.3-.3-1.3m4.4 2c-.4.1-.7-.7-.9-.5l-.2-.5c.3-.3-.3-.6.3-.6.4 0 .6-.6.6-.6l-.7-.2q.1 0 0-1.5c0-.9-2-.8-2.3.2v.8s-.6 1.2 0 1.4.4.3.7.6l-.3.7c-.5-.7-.8.5-.5.8s-.7.1-.7.5-.3.6 0 .8q.4.2-.5.6c-.4.3 1.7.4 1.7.4s-.4-.8.1-.8h.2q.5 0 1 .2.4.4 1 .1.4-.6.3-1t.4-.7c.4 0 .2-.8-.2-.7"/><path fill="#fff" d="m40 323.7-.3 37.2s4.7 79.2 39.8 121.4v.1A174 174 0 0 1 55 462.7l-1.5-1.5-1.5-1.5-1.6-1.5-2.9-3.1-1.4-1.6-1.3-1.5-4.2-5-1.3-1.6a172 172 0 0 1-13-18.6l-2.6-4.1-.3-.6-1.3-2.2-2.6-4.8-1.2-2.4-1.2-2.5-1-2.4q-.7-1.2-1-2.2l-.2-.3-1-2.4-1-2.4v-.2l-1-2.4q-1.2-2.5-2-5.1l-.9-2.6q-1.3-3.9-2.4-7.9l-.7-2.7A237 237 0 0 1 2 360.5l-1-8.4-.2-2.4-.1-1.1-.3-5-.1-2.5-.1-3.3V176.6A140 140 0 0 1 2 152v-.1l.7-4.3v-.1l1.6-8.6.5-2.1.5-2.1 1.1-4.2 1.2-4.2.6-2.1q.7-2 1.3-4.1l2.1-5.9.2-.4q.7-1.7 1.3-3.3l.4-1q.7-1.5 1.3-3.1l2-4.5 1.7-3.6a179 179 0 0 1 25.2-37.7l1.8-2.1q4.6-5 9.6-9.8L58 46l1.7-1.5 4.8-4.1q9.8-8.1 20.8-14.8l3.7-2.2Q99.2 17.5 110 13l4-1.6A174 174 0 0 1 165.6.3q5.4-.2 11-.3h61.5c-43 8.7-151.3 39.5-187.8 131.3a170 170 0 0 0-9.7 35.1l-.2 40.3v27.2L40 272v15.3l-.2 24v12.4" opacity=".2"/><path fill="#160204" d="M511.9 176.6v158.2c0 96-76.8 174.1-172.2 176.5l-4.6.1H172.2l-2-.1-3.5-.2-1.4-.1-5.7-.5-3.8-.4a194 194 0 0 1-38.2-9l159.7-13.5c133.8-18.4 163.2-95.1 169.5-123.4 1.5-6.6 1.7-10.6 1.7-10.6v-38.9l-.3-50.4-.2-41.9v-15.8l-.2-25.4v-21.1l-.3-3.6-1-7.8q-1.4-8.7-5.5-22.1v-.1q-3.4-10.7-9.3-23.4l-.4-.8-1.6-3.2-.6-1.2c-17.9-34.4-53-74.7-121.9-98.1H335C432.7 0 512 79.2 512 176.6" opacity=".1"/></svg>