<svg viewBox="0 0 24 24" xmlns="http://www.w3.org/2000/svg">
    <path d="M14.7995 2.95996H9.20146C5.7596 2.95996 2.95996 5.7596 2.95996 9.20082V14.7995C2.95996 18.2407 5.7596 21.0403 9.20146 21.0403H14.7995C18.2407 21.0403 21.0403 18.2407 21.0403 14.7995V9.20082C21.041 5.7596 18.2407 2.95996 14.7995 2.95996Z"
          fill="#EA0020"/>
    <path d="M9.19665 2.96094V21.0381C5.75094 21.0317 2.96094 18.2417 2.96094 14.7959V9.20308C2.96094 5.75737 5.75094 2.96737 9.19665 2.96094Z"
          fill="#2A670B"/>
    <path d="M9.19933 7.66113C6.80726 7.66113 4.86133 9.6077 4.86133 11.9998C4.86133 14.3918 6.80726 16.3384 9.19933 16.3384C11.5914 16.3384 13.5373 14.3918 13.5373 11.9998C13.5373 9.6077 11.5908 7.66113 9.19933 7.66113Z"
          fill="#FAD21D"/>
    <path d="M10.6427 9.74512H7.75694C7.42201 9.74512 7.15137 10.0164 7.15137 10.3507V12.5827C7.15137 12.5827 7.15137 14.4765 9.2233 14.472C9.2233 14.472 11.1172 14.5614 11.2483 12.5795V10.3507C11.2483 10.0164 10.977 9.74512 10.6427 9.74512Z"
          fill="#EFEFEF"/>
    <path d="M9.2233 14.472C7.15137 14.4765 7.15137 12.5827 7.15137 12.5827V10.3507C7.15137 10.0158 7.42265 9.74512 7.75694 9.74512H10.6421C10.977 9.74512 11.2477 10.0164 11.2477 10.3507V12.5795C11.1172 14.5608 9.2233 14.472 9.2233 14.472ZM10.0391 12.53L10.0378 10.9556H8.36251V12.5422C8.36251 12.5422 8.39787 13.3091 9.20015 13.2622C9.20015 13.2622 9.94587 13.3316 10.0391 12.53Z"
          fill="#EA0020"/>
    <path opacity="0.13"
          d="M21.0385 9.20372V14.7959C21.0385 18.2417 18.2421 21.0381 14.7964 21.0381H9.20354C8.47004 21.0381 7.76997 20.9102 7.11426 20.6781L12.7521 20.1959C18.577 19.3924 18.8014 15.4581 18.8014 15.4581L18.7757 8.62451C18.7757 8.62451 18.6535 4.60665 13.8128 2.96094H14.7958C18.2421 2.96158 21.0385 5.75801 21.0385 9.20372Z"
          fill="#160204"/>
    <path opacity="0.2"
          d="M4.39451 8.83665L4.36237 15.7152C4.36237 15.7152 4.52951 18.5174 5.76958 20.0095C4.07887 18.8909 2.96094 16.9752 2.96094 14.7959V9.20308C2.96094 5.75737 5.75737 2.96094 9.20308 2.96094H11.3689C9.67237 3.30165 5.08879 4.61951 4.39451 8.83665Z"
          fill="white"/>
    <path opacity="0.1"
          d="M12.9192 14.2183C13.3114 8.03399 8.79209 8.07192 6.80566 8.38756C7.49352 7.9247 8.31638 7.66113 9.19709 7.66113C11.5892 7.66113 13.5364 9.60899 13.5364 12.0004C13.5364 12.8104 13.3114 13.569 12.9192 14.2183Z"
          fill="#160204"/>
</svg>
