<svg viewBox="0 0 24 24" xmlns="http://www.w3.org/2000/svg">
    <path d="M14.7995 2.95996H9.20146C5.7596 2.95996 2.95996 5.7596 2.95996 9.20082V14.7995C2.95996 18.2407 5.7596 21.0403 9.20146 21.0403H14.7995C18.2407 21.0403 21.0403 18.2407 21.0403 14.7995V9.20082C21.041 5.75896 18.2407 2.95996 14.7995 2.95996Z"
          fill="#0E55B9"/>
    <path d="M21.0315 9.00025C20.9241 5.65225 18.174 2.95996 14.8009 2.95996H9.2029C5.82918 2.95996 3.07904 5.65225 2.97168 9.00025H21.0315Z"
          fill="#EFEFEF"/>
    <path d="M2.96973 15C3.07708 18.348 5.82723 21.0403 9.20094 21.0403H14.7989C18.172 21.0403 20.9222 18.348 21.0295 15H2.96973Z"
          fill="#E50F19"/>
    <path opacity="0.13"
          d="M21.0395 9.20308V14.7959C21.0395 18.2417 18.2431 21.0381 14.7974 21.0381H9.20452C8.47102 21.0381 7.77095 20.9095 7.11523 20.6781L12.7531 20.1959C18.578 19.3924 18.8024 15.4581 18.8024 15.4581L18.7767 8.62451C18.7767 8.62451 18.6545 4.60665 13.8138 2.96094H14.7967C18.2431 2.96094 21.0395 5.75737 21.0395 9.20308Z"
          fill="#160204"/>
    <path opacity="0.2"
          d="M2.96289 14.7959V9.20308C2.96289 5.75737 5.75932 2.96094 9.20503 2.96094H11.3708C9.67368 3.30165 5.09011 4.61951 4.39582 8.83665L4.36368 15.7152C4.36368 15.7152 4.53082 18.5181 5.77089 20.0095C4.08146 18.8909 2.96289 16.9752 2.96289 14.7959Z"
          fill="white"/>
</svg>
