<svg viewBox="0 0 24 24" xmlns="http://www.w3.org/2000/svg">
    <path d="M14.7995 2.95996H9.20146C5.7596 2.95996 2.95996 5.7596 2.95996 9.20082V14.7995C2.95996 18.2407 5.7596 21.0403 9.20146 21.0403H14.7995C18.2407 21.0403 21.0403 18.2407 21.0403 14.7995V9.20082C21.041 5.75896 18.2407 2.95996 14.7995 2.95996Z"
          fill="#428BC1"/>
    <path d="M2.96094 12V14.799C2.96094 18.2402 5.76058 21.0399 9.20244 21.0399H14.8004C18.2417 21.0399 21.0413 18.2402 21.0413 14.799V12H2.96094Z"
          fill="#FFE62E"/>
    <path opacity="0.13"
          d="M21.0395 9.20308V14.7959C21.0395 18.2417 18.2431 21.0381 14.7974 21.0381H9.20452C8.47102 21.0381 7.77095 20.9095 7.11523 20.6781L12.7531 20.1959C18.578 19.3924 18.8024 15.4581 18.8024 15.4581L18.7767 8.62451C18.7767 8.62451 18.6545 4.60665 13.8138 2.96094H14.7967C18.2431 2.96094 21.0395 5.75737 21.0395 9.20308Z"
          fill="#160204"/>
    <path opacity="0.22"
          d="M2.96094 14.7959V9.20308C2.96094 5.75737 5.75737 2.96094 9.20308 2.96094H11.3689C9.67172 3.30165 5.08815 4.61951 4.39387 8.83665L4.36172 15.7152C4.36172 15.7152 4.52887 18.5181 5.76894 20.0095C4.07951 18.8909 2.96094 16.9752 2.96094 14.7959Z"
          fill="white"/>
</svg>
