<svg id="Layer_1" enable-background="new 0 0 100 100" viewBox="0 0 100 100" xmlns="http://www.w3.org/2000/svg"><g clip-rule="evenodd" fill-rule="evenodd"><path d="m26.3444405 26.1555023c0-13.0558243 10.5997352-23.6555023 23.6555595-23.6555023s23.6555557 10.599678 23.6555557 23.6555023c0 13.0558815-10.5997314 23.6649094-23.6555557 23.6649094s-23.6555595-10.6090279-23.6555595-23.6649094z"/><path d="m90.8712769 87.2821808c0 2.7103653-1.0755615 5.3025055-2.9900894 7.2277298-1.9144593 1.9145279-4.5172959 2.9900894-7.2277299 2.9900894h-61.3069152c-2.7104321 0-5.3132687-1.0755615-7.2277317-2.9900894-1.9145279-1.9252243-2.9900885-4.5173645-2.9900885-7.2277298 0-18.8115311 15.2514315-34.0630302 34.0629654-34.0630302h13.6166229c18.811532-.0000001 34.0629664 15.2514991 34.0629664 34.0630302z"/></g></svg>