<svg id="closed_eye_eye_closed_private_invisible_hide_secret_forbidden_confidential_hidden_safe_safety_secure" viewBox="0 0 32 32" xmlns="http://www.w3.org/2000/svg"><path d="m25.85 10.37-4.92 4.92c.03.23.07.47.07.71 0 2.76-2.24 5-5 5-.24 0-.47-.04-.71-.07l-3.5 3.5c1.36.37 2.77.57 4.21.57 5.47 0 10.65-2.83 13.53-7.38.62-.98.62-2.26 0-3.24-.98-1.55-2.24-2.9-3.68-4.01z"/><path d="m28.29 2.29-6.01 6.01c-1.96-.83-4.1-1.29-6.28-1.29-5.47 0-10.65 2.83-13.53 7.38-.62.99-.62 2.26 0 3.24 1.35 2.13 3.2 3.88 5.35 5.14l-5.53 5.53c-.95.95.49 2.34 1.41 1.41l26-26.01c.94-.94-.48-2.35-1.41-1.41zm-17.29 13.71c0-2.76 2.24-5 5-5 1.01 0 1.96.31 2.74.83l-1.47 1.47c-.39-.18-.82-.3-1.28-.3-1.65 0-3 1.35-3 3 0 .46.11.89.3 1.28l-1.47 1.47c-.52-.79-.83-1.73-.83-2.74z"/></svg>